%TF.GenerationSoftware,KiCad,Pcbnew,(5.1.8)-1*%
%TF.CreationDate,2023-02-27T06:27:53-05:00*%
%TF.ProjectId,nabu_export,6e616275-5f65-4787-906f-72742e6b6963,rev?*%
%TF.SameCoordinates,Original*%
%TF.FileFunction,Legend,Bot*%
%TF.FilePolarity,Positive*%
%FSLAX46Y46*%
G04 Gerber Fmt 4.6, Leading zero omitted, Abs format (unit mm)*
G04 Created by KiCad (PCBNEW (5.1.8)-1) date 2023-02-27 06:27:53*
%MOMM*%
%LPD*%
G01*
G04 APERTURE LIST*
%ADD10C,0.300000*%
G04 APERTURE END LIST*
D10*
X136714285Y-101892857D02*
X137214285Y-101892857D01*
X137214285Y-102678571D02*
X137214285Y-101178571D01*
X136500000Y-101178571D01*
X135928571Y-101178571D02*
X135928571Y-102392857D01*
X135857142Y-102535714D01*
X135785714Y-102607142D01*
X135642857Y-102678571D01*
X135357142Y-102678571D01*
X135214285Y-102607142D01*
X135142857Y-102535714D01*
X135071428Y-102392857D01*
X135071428Y-101178571D01*
X134428571Y-102607142D02*
X134214285Y-102678571D01*
X133857142Y-102678571D01*
X133714285Y-102607142D01*
X133642857Y-102535714D01*
X133571428Y-102392857D01*
X133571428Y-102250000D01*
X133642857Y-102107142D01*
X133714285Y-102035714D01*
X133857142Y-101964285D01*
X134142857Y-101892857D01*
X134285714Y-101821428D01*
X134357142Y-101750000D01*
X134428571Y-101607142D01*
X134428571Y-101464285D01*
X134357142Y-101321428D01*
X134285714Y-101250000D01*
X134142857Y-101178571D01*
X133785714Y-101178571D01*
X133571428Y-101250000D01*
X132928571Y-101892857D02*
X132428571Y-101892857D01*
X132214285Y-102678571D02*
X132928571Y-102678571D01*
X132928571Y-101178571D01*
X132214285Y-101178571D01*
X131571428Y-102678571D02*
X131571428Y-101178571D01*
X131214285Y-101178571D01*
X131000000Y-101250000D01*
X130857142Y-101392857D01*
X130785714Y-101535714D01*
X130714285Y-101821428D01*
X130714285Y-102035714D01*
X130785714Y-102321428D01*
X130857142Y-102464285D01*
X131000000Y-102607142D01*
X131214285Y-102678571D01*
X131571428Y-102678571D01*
X138000000Y-91178571D02*
X138000000Y-89678571D01*
X137642857Y-89678571D01*
X137428571Y-89750000D01*
X137285714Y-89892857D01*
X137214285Y-90035714D01*
X137142857Y-90321428D01*
X137142857Y-90535714D01*
X137214285Y-90821428D01*
X137285714Y-90964285D01*
X137428571Y-91107142D01*
X137642857Y-91178571D01*
X138000000Y-91178571D01*
X136500000Y-91178571D02*
X136500000Y-89678571D01*
X134928571Y-91178571D02*
X135428571Y-90464285D01*
X135785714Y-91178571D02*
X135785714Y-89678571D01*
X135214285Y-89678571D01*
X135071428Y-89750000D01*
X135000000Y-89821428D01*
X134928571Y-89964285D01*
X134928571Y-90178571D01*
X135000000Y-90321428D01*
X135071428Y-90392857D01*
X135214285Y-90464285D01*
X135785714Y-90464285D01*
X134285714Y-90392857D02*
X133785714Y-90392857D01*
X133571428Y-91178571D02*
X134285714Y-91178571D01*
X134285714Y-89678571D01*
X133571428Y-89678571D01*
X132071428Y-91035714D02*
X132142857Y-91107142D01*
X132357142Y-91178571D01*
X132500000Y-91178571D01*
X132714285Y-91107142D01*
X132857142Y-90964285D01*
X132928571Y-90821428D01*
X133000000Y-90535714D01*
X133000000Y-90321428D01*
X132928571Y-90035714D01*
X132857142Y-89892857D01*
X132714285Y-89750000D01*
X132500000Y-89678571D01*
X132357142Y-89678571D01*
X132142857Y-89750000D01*
X132071428Y-89821428D01*
X131642857Y-89678571D02*
X130785714Y-89678571D01*
X131214285Y-91178571D02*
X131214285Y-89678571D01*
M02*
