%TF.GenerationSoftware,KiCad,Pcbnew,(5.1.8)-1*%
%TF.CreationDate,2023-02-27T06:27:53-05:00*%
%TF.ProjectId,nabu_export,6e616275-5f65-4787-906f-72742e6b6963,rev?*%
%TF.SameCoordinates,Original*%
%TF.FileFunction,Copper,L1,Top*%
%TF.FilePolarity,Positive*%
%FSLAX46Y46*%
G04 Gerber Fmt 4.6, Leading zero omitted, Abs format (unit mm)*
G04 Created by KiCad (PCBNEW (5.1.8)-1) date 2023-02-27 06:27:53*
%MOMM*%
%LPD*%
G01*
G04 APERTURE LIST*
%TA.AperFunction,ComponentPad*%
%ADD10C,4.000000*%
%TD*%
%TA.AperFunction,ComponentPad*%
%ADD11C,1.600000*%
%TD*%
%TA.AperFunction,ComponentPad*%
%ADD12R,1.600000X1.600000*%
%TD*%
%TA.AperFunction,ComponentPad*%
%ADD13O,1.700000X1.700000*%
%TD*%
%TA.AperFunction,ComponentPad*%
%ADD14R,1.700000X1.700000*%
%TD*%
%TA.AperFunction,ComponentPad*%
%ADD15C,2.000000*%
%TD*%
%TA.AperFunction,Conductor*%
%ADD16C,0.250000*%
%TD*%
G04 APERTURE END LIST*
D10*
%TO.P,JOUT1,0*%
%TO.N,Net-(JOUT1-Pad0)*%
X122920000Y-50570000D03*
X122920000Y-97670000D03*
D11*
%TO.P,JOUT1,25*%
%TO.N,GROUND_1*%
X124340000Y-89355000D03*
%TO.P,JOUT1,24*%
%TO.N,+5V_1*%
X124340000Y-86585000D03*
%TO.P,JOUT1,23*%
%TO.N,DATA_7*%
X124340000Y-83815000D03*
%TO.P,JOUT1,22*%
%TO.N,DATA_6*%
X124340000Y-81045000D03*
%TO.P,JOUT1,21*%
%TO.N,DATA_5*%
X124340000Y-78275000D03*
%TO.P,JOUT1,20*%
%TO.N,DATA_4*%
X124340000Y-75505000D03*
%TO.P,JOUT1,19*%
%TO.N,DATA_3*%
X124340000Y-72735000D03*
%TO.P,JOUT1,18*%
%TO.N,DATA_2*%
X124340000Y-69965000D03*
%TO.P,JOUT1,17*%
%TO.N,DATA_1*%
X124340000Y-67195000D03*
%TO.P,JOUT1,16*%
%TO.N,DATA_0*%
X124340000Y-64425000D03*
%TO.P,JOUT1,15*%
%TO.N,RESET*%
X124340000Y-61655000D03*
%TO.P,JOUT1,14*%
%TO.N,WAIT_REQUEST*%
X124340000Y-58885000D03*
%TO.P,JOUT1,13*%
%TO.N,IO_REQUEST*%
X121500000Y-90740000D03*
%TO.P,JOUT1,12*%
%TO.N,READ*%
X121500000Y-87970000D03*
%TO.P,JOUT1,11*%
%TO.N,WRITE*%
X121500000Y-85200000D03*
%TO.P,JOUT1,10*%
%TO.N,1.79MhzClock*%
X121500000Y-82430000D03*
%TO.P,JOUT1,9*%
%TO.N,ADDRESS_3*%
X121500000Y-79660000D03*
%TO.P,JOUT1,8*%
%TO.N,ADDRESS_2*%
X121500000Y-76890000D03*
%TO.P,JOUT1,7*%
%TO.N,ADDRESS_1*%
X121500000Y-74120000D03*
%TO.P,JOUT1,6*%
%TO.N,ADDRESS_0*%
X121500000Y-71350000D03*
%TO.P,JOUT1,5*%
%TO.N,CARD_SELECT*%
X121500000Y-68580000D03*
%TO.P,JOUT1,4*%
%TO.N,AUDIO*%
X121500000Y-65810000D03*
%TO.P,JOUT1,3*%
%TO.N,3.58MhzClock*%
X121500000Y-63040000D03*
%TO.P,JOUT1,2*%
%TO.N,INTERRUPT_ACKNOWLEDGE*%
X121500000Y-60270000D03*
D12*
%TO.P,JOUT1,1*%
%TO.N,INTERRUPT_REQUEST*%
X121500000Y-57500000D03*
%TD*%
D13*
%TO.P,JOP2,13*%
%TO.N,GROUND_1*%
X135000000Y-85980000D03*
%TO.P,JOP2,12*%
%TO.N,+5V_2_UNCONNECTED*%
X135000000Y-83440000D03*
%TO.P,JOP2,11*%
%TO.N,Net-(JFUSE1-Pad2)*%
X135000000Y-80900000D03*
%TO.P,JOP2,10*%
%TO.N,DATA_7*%
X135000000Y-78360000D03*
%TO.P,JOP2,9*%
%TO.N,DATA_6*%
X135000000Y-75820000D03*
%TO.P,JOP2,8*%
%TO.N,DATA_5*%
X135000000Y-73280000D03*
%TO.P,JOP2,7*%
%TO.N,DATA_4*%
X135000000Y-70740000D03*
%TO.P,JOP2,6*%
%TO.N,DATA_3*%
X135000000Y-68200000D03*
%TO.P,JOP2,5*%
%TO.N,DATA_2*%
X135000000Y-65660000D03*
%TO.P,JOP2,4*%
%TO.N,DATA_1*%
X135000000Y-63120000D03*
%TO.P,JOP2,3*%
%TO.N,DATA_0*%
X135000000Y-60580000D03*
%TO.P,JOP2,2*%
%TO.N,RESET*%
X135000000Y-58040000D03*
D14*
%TO.P,JOP2,1*%
%TO.N,WAIT_REQUEST*%
X135000000Y-55500000D03*
%TD*%
D13*
%TO.P,JOP1,13*%
%TO.N,IO_REQUEST*%
X113000000Y-85980000D03*
%TO.P,JOP1,12*%
%TO.N,READ*%
X113000000Y-83440000D03*
%TO.P,JOP1,11*%
%TO.N,WRITE*%
X113000000Y-80900000D03*
%TO.P,JOP1,10*%
%TO.N,1.79MhzClock*%
X113000000Y-78360000D03*
%TO.P,JOP1,9*%
%TO.N,ADDRESS_3*%
X113000000Y-75820000D03*
%TO.P,JOP1,8*%
%TO.N,ADDRESS_2*%
X113000000Y-73280000D03*
%TO.P,JOP1,7*%
%TO.N,ADDRESS_1*%
X113000000Y-70740000D03*
%TO.P,JOP1,6*%
%TO.N,ADDRESS_0*%
X113000000Y-68200000D03*
%TO.P,JOP1,5*%
%TO.N,CARD_SELECT*%
X113000000Y-65660000D03*
%TO.P,JOP1,4*%
%TO.N,AUDIO*%
X113000000Y-63120000D03*
%TO.P,JOP1,3*%
%TO.N,3.58MhzClock*%
X113000000Y-60580000D03*
%TO.P,JOP1,2*%
%TO.N,INTERRUPT_ACKNOWLEDGE*%
X113000000Y-58040000D03*
D14*
%TO.P,JOP1,1*%
%TO.N,INTERRUPT_REQUEST*%
X113000000Y-55500000D03*
%TD*%
D13*
%TO.P,JFUSE1,3*%
%TO.N,Net-(F5VF1-Pad2)*%
X134000000Y-98080000D03*
%TO.P,JFUSE1,2*%
%TO.N,Net-(JFUSE1-Pad2)*%
X134000000Y-95540000D03*
D14*
%TO.P,JFUSE1,1*%
%TO.N,+5V_1*%
X134000000Y-93000000D03*
%TD*%
D15*
%TO.P,F5VF1,2*%
%TO.N,Net-(F5VF1-Pad2)*%
X129400000Y-105000000D03*
%TO.P,F5VF1,1*%
%TO.N,+5V_1*%
X118000000Y-105000000D03*
%TD*%
D16*
%TO.N,GROUND_1*%
X127715000Y-85980000D02*
X124340000Y-89355000D01*
X135000000Y-85980000D02*
X127715000Y-85980000D01*
%TO.N,+5V_1*%
X123214999Y-87710001D02*
X124340000Y-86585000D01*
X123214999Y-89895001D02*
X123214999Y-87710001D01*
X134000000Y-93000000D02*
X126319998Y-93000000D01*
X118000000Y-98500000D02*
X124909999Y-91590001D01*
X118000000Y-105000000D02*
X118000000Y-98500000D01*
X124909999Y-91590001D02*
X123214999Y-89895001D01*
X126319998Y-93000000D02*
X124909999Y-91590001D01*
%TO.N,DATA_7*%
X129795000Y-78360000D02*
X124340000Y-83815000D01*
X135000000Y-78360000D02*
X129795000Y-78360000D01*
%TO.N,DATA_6*%
X129565000Y-75820000D02*
X124340000Y-81045000D01*
X135000000Y-75820000D02*
X129565000Y-75820000D01*
%TO.N,DATA_5*%
X129335000Y-73280000D02*
X124340000Y-78275000D01*
X135000000Y-73280000D02*
X129335000Y-73280000D01*
%TO.N,DATA_4*%
X129105000Y-70740000D02*
X124340000Y-75505000D01*
X135000000Y-70740000D02*
X129105000Y-70740000D01*
%TO.N,DATA_3*%
X128875000Y-68200000D02*
X124340000Y-72735000D01*
X135000000Y-68200000D02*
X128875000Y-68200000D01*
%TO.N,DATA_2*%
X128645000Y-65660000D02*
X124340000Y-69965000D01*
X135000000Y-65660000D02*
X128645000Y-65660000D01*
%TO.N,DATA_1*%
X128415000Y-63120000D02*
X124340000Y-67195000D01*
X135000000Y-63120000D02*
X128415000Y-63120000D01*
%TO.N,DATA_0*%
X128185000Y-60580000D02*
X124340000Y-64425000D01*
X135000000Y-60580000D02*
X128185000Y-60580000D01*
%TO.N,RESET*%
X127955000Y-58040000D02*
X124340000Y-61655000D01*
X135000000Y-58040000D02*
X127955000Y-58040000D01*
%TO.N,WAIT_REQUEST*%
X127725000Y-55500000D02*
X124340000Y-58885000D01*
X135000000Y-55500000D02*
X127725000Y-55500000D01*
%TO.N,IO_REQUEST*%
X116740000Y-85980000D02*
X116880000Y-86120000D01*
X113000000Y-85980000D02*
X116740000Y-85980000D01*
X116880000Y-86120000D02*
X121500000Y-90740000D01*
%TO.N,READ*%
X116970000Y-83440000D02*
X117015000Y-83485000D01*
X113000000Y-83440000D02*
X116970000Y-83440000D01*
X117015000Y-83485000D02*
X121500000Y-87970000D01*
%TO.N,WRITE*%
X117200000Y-80900000D02*
X121500000Y-85200000D01*
X113000000Y-80900000D02*
X117200000Y-80900000D01*
%TO.N,1.79MhzClock*%
X121430000Y-82430000D02*
X121500000Y-82430000D01*
X117360000Y-78360000D02*
X121430000Y-82430000D01*
X117360000Y-78360000D02*
X113000000Y-78360000D01*
%TO.N,ADDRESS_3*%
X117660000Y-75820000D02*
X121500000Y-79660000D01*
X117660000Y-75820000D02*
X113000000Y-75820000D01*
%TO.N,ADDRESS_2*%
X117890000Y-73280000D02*
X121500000Y-76890000D01*
X117890000Y-73280000D02*
X113000000Y-73280000D01*
%TO.N,ADDRESS_1*%
X118120000Y-70740000D02*
X121500000Y-74120000D01*
X118120000Y-70740000D02*
X113000000Y-70740000D01*
%TO.N,ADDRESS_0*%
X118350000Y-68200000D02*
X121500000Y-71350000D01*
X118350000Y-68200000D02*
X113000000Y-68200000D01*
%TO.N,CARD_SELECT*%
X118580000Y-65660000D02*
X121500000Y-68580000D01*
X118580000Y-65660000D02*
X113000000Y-65660000D01*
%TO.N,AUDIO*%
X118810000Y-63120000D02*
X121500000Y-65810000D01*
X113000000Y-63120000D02*
X118880000Y-63120000D01*
%TO.N,3.58MhzClock*%
X119040000Y-60580000D02*
X121500000Y-63040000D01*
X113000000Y-60580000D02*
X119040000Y-60580000D01*
%TO.N,INTERRUPT_ACKNOWLEDGE*%
X119270000Y-58040000D02*
X121500000Y-60270000D01*
X113000000Y-58040000D02*
X119270000Y-58040000D01*
%TO.N,INTERRUPT_REQUEST*%
X119500000Y-55500000D02*
X121500000Y-57500000D01*
X119500000Y-55500000D02*
X113000000Y-55500000D01*
%TO.N,Net-(JFUSE1-Pad2)*%
X136175001Y-93364999D02*
X134000000Y-95540000D01*
X136175001Y-82075001D02*
X136175001Y-93364999D01*
X135000000Y-80900000D02*
X136175001Y-82075001D01*
%TO.N,Net-(F5VF1-Pad2)*%
X134000000Y-100400000D02*
X129400000Y-105000000D01*
X134000000Y-98080000D02*
X134000000Y-100400000D01*
%TD*%
M02*
