%TF.GenerationSoftware,KiCad,Pcbnew,(5.1.8)-1*%
%TF.CreationDate,2023-02-27T06:27:53-05:00*%
%TF.ProjectId,nabu_export,6e616275-5f65-4787-906f-72742e6b6963,rev?*%
%TF.SameCoordinates,Original*%
%TF.FileFunction,Soldermask,Bot*%
%TF.FilePolarity,Negative*%
%FSLAX46Y46*%
G04 Gerber Fmt 4.6, Leading zero omitted, Abs format (unit mm)*
G04 Created by KiCad (PCBNEW (5.1.8)-1) date 2023-02-27 06:27:53*
%MOMM*%
%LPD*%
G01*
G04 APERTURE LIST*
%ADD10C,4.000000*%
%ADD11C,1.600000*%
%ADD12R,1.600000X1.600000*%
%ADD13O,1.700000X1.700000*%
%ADD14R,1.700000X1.700000*%
%ADD15C,2.000000*%
G04 APERTURE END LIST*
D10*
%TO.C,JOUT1*%
X122920000Y-50570000D03*
X122920000Y-97670000D03*
D11*
X124340000Y-89355000D03*
X124340000Y-86585000D03*
X124340000Y-83815000D03*
X124340000Y-81045000D03*
X124340000Y-78275000D03*
X124340000Y-75505000D03*
X124340000Y-72735000D03*
X124340000Y-69965000D03*
X124340000Y-67195000D03*
X124340000Y-64425000D03*
X124340000Y-61655000D03*
X124340000Y-58885000D03*
X121500000Y-90740000D03*
X121500000Y-87970000D03*
X121500000Y-85200000D03*
X121500000Y-82430000D03*
X121500000Y-79660000D03*
X121500000Y-76890000D03*
X121500000Y-74120000D03*
X121500000Y-71350000D03*
X121500000Y-68580000D03*
X121500000Y-65810000D03*
X121500000Y-63040000D03*
X121500000Y-60270000D03*
D12*
X121500000Y-57500000D03*
%TD*%
D13*
%TO.C,JOP2*%
X135000000Y-85980000D03*
X135000000Y-83440000D03*
X135000000Y-80900000D03*
X135000000Y-78360000D03*
X135000000Y-75820000D03*
X135000000Y-73280000D03*
X135000000Y-70740000D03*
X135000000Y-68200000D03*
X135000000Y-65660000D03*
X135000000Y-63120000D03*
X135000000Y-60580000D03*
X135000000Y-58040000D03*
D14*
X135000000Y-55500000D03*
%TD*%
D13*
%TO.C,JOP1*%
X113000000Y-85980000D03*
X113000000Y-83440000D03*
X113000000Y-80900000D03*
X113000000Y-78360000D03*
X113000000Y-75820000D03*
X113000000Y-73280000D03*
X113000000Y-70740000D03*
X113000000Y-68200000D03*
X113000000Y-65660000D03*
X113000000Y-63120000D03*
X113000000Y-60580000D03*
X113000000Y-58040000D03*
D14*
X113000000Y-55500000D03*
%TD*%
D13*
%TO.C,JFUSE1*%
X134000000Y-98080000D03*
X134000000Y-95540000D03*
D14*
X134000000Y-93000000D03*
%TD*%
D15*
%TO.C,F5VF1*%
X129400000Y-105000000D03*
X118000000Y-105000000D03*
%TD*%
M02*
