M48
; DRILL file {KiCad (5.1.8)-1} date 02/25/23 21:35:18
; FORMAT={-:-/ absolute / inch / decimal}
; #@! TF.CreationDate,2023-02-25T21:35:18-05:00
; #@! TF.GenerationSoftware,Kicad,Pcbnew,(5.1.8)-1
FMAT,2
INCH
T1C0.0394
T2C0.1260
%
G90
G05
T1
X4.7835Y-2.2638
X4.7835Y-2.3728
X4.7835Y-2.4819
X4.7835Y-2.5909
X4.7835Y-2.7
X4.7835Y-2.8091
X4.7835Y-2.9181
X4.7835Y-3.0272
X4.7835Y-3.1362
X4.7835Y-3.2453
X4.7835Y-3.3543
X4.7835Y-3.4634
X4.7835Y-3.5724
X4.8953Y-2.3183
X4.8953Y-2.4274
X4.8953Y-2.5364
X4.8953Y-2.6455
X4.8953Y-2.7545
X4.8953Y-2.8636
X4.8953Y-2.9726
X4.8953Y-3.0817
X4.8953Y-3.1907
X4.8953Y-3.2998
X4.8953Y-3.4089
X4.8953Y-3.5179
X5.315Y-2.185
X5.315Y-2.285
X5.315Y-2.385
X5.315Y-2.485
X5.315Y-2.585
X5.315Y-2.685
X5.315Y-2.785
X5.315Y-2.885
X5.315Y-2.985
X5.315Y-3.085
X5.315Y-3.185
X5.315Y-3.285
X5.315Y-3.385
X5.2756Y-3.6614
X5.2756Y-3.7614
X5.2756Y-3.8614
X4.6457Y-4.1339
X5.0945Y-4.1339
X4.4488Y-2.185
X4.4488Y-2.285
X4.4488Y-2.385
X4.4488Y-2.485
X4.4488Y-2.585
X4.4488Y-2.685
X4.4488Y-2.785
X4.4488Y-2.885
X4.4488Y-2.985
X4.4488Y-3.085
X4.4488Y-3.185
X4.4488Y-3.285
X4.4488Y-3.385
T2
X4.8394Y-1.9909
X4.8394Y-3.8453
T0
M30
